<svg width="99" height="100" viewBox="0 0 99 100" fill="none" xmlns="http://www.w3.org/2000/svg">
<rect width="99" height="99.0455" rx="15" fill="white"/>
<g clip-path="url(#clip0_1422_13976)">
<path d="M50 15.0069C31.2225 15.0069 16 30.2364 16 49.0225C16 67.8086 31.2225 83.0382 50 83.0382C68.7775 83.0382 84 67.8086 84 49.0225C83.979 30.2453 68.7686 15.0279 50 15.0069ZM50 80.7705C32.4743 80.7705 18.2667 66.5563 18.2667 49.0225C18.2667 31.4888 32.4743 17.2746 50 17.2746C67.5257 17.2746 81.7333 31.4888 81.7333 49.0225C81.7134 66.548 67.5174 80.7505 50 80.7705Z" fill="#0A00C5"/>
<path d="M50.0003 21.81C34.9781 21.81 22.8003 33.9934 22.8003 49.0225C22.8003 64.0516 34.9781 76.2351 50.0003 76.2351C65.0225 76.2351 77.2003 64.0516 77.2003 49.0225C77.1826 34.0006 65.0153 21.8277 50.0003 21.81ZM51.1336 73.9391V70.5658C51.1336 69.9396 50.6262 69.4319 50.0003 69.4319C49.3744 69.4319 48.867 69.9396 48.867 70.5658V73.9391C35.9952 73.3379 25.6962 63.0341 25.0952 50.1564H28.467C29.0928 50.1564 29.6003 49.6487 29.6003 49.0225C29.6003 48.3964 29.0928 47.8887 28.467 47.8887H25.0952C25.6962 35.011 35.9952 24.7072 48.867 24.106V27.4793C48.867 28.1055 49.3744 28.6132 50.0003 28.6132C50.6262 28.6132 51.1336 28.1055 51.1336 27.4793V24.106C64.0054 24.7072 74.3044 35.011 74.9054 47.8887H71.5336C70.9077 47.8887 70.4003 48.3964 70.4003 49.0225C70.4003 49.6487 70.9077 50.1564 71.5336 50.1564H74.9054C74.3044 63.0341 64.0054 73.3379 51.1336 73.9391V73.9391Z" fill="#0A00C5"/>
<path d="M64.7335 47.8887H53.1916C52.7129 46.5345 51.4357 45.6271 50.0002 45.621C49.4944 45.6226 48.9958 45.7389 48.5415 45.9609L48.5348 45.9509L36.0682 33.4785C35.6232 33.0489 34.9166 33.055 34.4794 33.4924C34.0422 33.9298 34.0361 34.6368 34.4656 35.0819L46.9322 47.5543L46.9422 47.5609C46.7197 48.016 46.6024 48.516 46.6002 49.0225C46.5969 50.6774 47.7872 52.093 49.4175 52.3737C51.0478 52.6539 52.6421 51.7171 53.1916 50.1564H64.7335C65.3594 50.1564 65.8669 49.6487 65.8669 49.0225C65.8669 48.3964 65.3594 47.8887 64.7335 47.8887V47.8887ZM50.0002 50.1564C49.3743 50.1564 48.8669 49.6487 48.8669 49.0225C48.8669 48.3964 49.3743 47.8887 50.0002 47.8887C50.6261 47.8887 51.1335 48.3964 51.1335 49.0225C51.1335 49.6487 50.6261 50.1564 50.0002 50.1564Z" fill="#0A00C5"/>
</g>
<defs>
<clipPath id="clip0_1422_13976">
<rect width="68" height="68.0313" fill="white" transform="translate(16 15.0069)"/>
</clipPath>
</defs>
</svg>
