<svg width="99" height="100" viewBox="0 0 99 100" fill="none" xmlns="http://www.w3.org/2000/svg">
<rect width="99" height="99.0455" rx="15" fill="white"/>
<g clip-path="url(#clip0_1422_13958)">
<path d="M43.7017 48.4749C44.3596 48.4749 44.8931 47.9411 44.8931 47.2829V37.7473C44.8931 37.089 44.3596 36.5554 43.7017 36.5554C43.0438 36.5554 42.5103 37.089 42.5103 37.7473V47.2829C42.5103 47.9411 43.0436 48.4749 43.7017 48.4749Z" fill="#0A00C5"/>
<path d="M27.9366 38.9828C28.5945 38.9828 29.128 38.4491 29.128 37.7908C29.128 37.1326 28.5945 36.5989 27.9366 36.5989H23.957C23.2991 36.5989 22.7656 37.1326 22.7656 37.7908V47.2394C22.7656 47.8978 23.2991 48.4314 23.957 48.4314H27.9364C28.5943 48.4314 29.1279 47.8978 29.1279 47.2394C29.1279 46.5812 28.5943 46.0475 27.9364 46.0475H25.1484V43.7071H27.643C28.3009 43.7071 28.8344 43.1733 28.8344 42.5151C28.8344 41.8569 28.3009 41.3232 27.643 41.3232H25.1484V38.9828H27.9366Z" fill="#0A00C5"/>
<path d="M31.5357 48.2574C31.7442 48.4043 31.9837 48.475 32.2207 48.475C32.5952 48.475 32.9637 48.299 33.1958 47.9694L35.8168 44.2472L38.4337 47.9688C38.6657 48.2987 39.0344 48.475 39.4092 48.475C39.6459 48.475 39.8852 48.4045 40.0937 48.2579C40.6318 47.8791 40.7612 47.1356 40.3826 46.5971L37.2746 42.1769L39.9103 38.4336C40.2893 37.8955 40.1605 37.1519 39.6225 36.7728C39.0847 36.3936 38.3414 36.5226 37.9624 37.0608L35.8182 40.1057L33.6776 37.0614C33.299 36.5231 32.5561 36.3935 32.0176 36.7723C31.4794 37.1511 31.3501 37.8945 31.7287 38.4331L34.3605 42.1759L31.2478 46.5964C30.8689 47.1347 30.9976 47.8782 31.5357 48.2574Z" fill="#0A00C5"/>
<path d="M48.4673 38.9393H49.8971V47.2829C49.8971 47.9411 50.4306 48.4749 51.0885 48.4749C51.7465 48.4749 52.2799 47.9411 52.2799 47.2829V38.9393H53.731C54.3889 38.9393 54.9224 38.4055 54.9224 37.7473C54.9224 37.089 54.3889 36.5554 53.731 36.5554H48.4673C47.8094 36.5554 47.2759 37.089 47.2759 37.7473C47.2759 38.4055 47.8093 38.9393 48.4673 38.9393Z" fill="#0A00C5"/>
<path d="M78.54 23.2616C78.2495 23.0358 77.8714 22.9565 77.515 23.0474L63.6011 26.5864H30.3906C29.7327 26.5864 29.1992 27.1202 29.1992 27.7784V31.7657H19.1914C18.5334 31.7657 18 32.2994 18 32.9576V52.0289C18 52.6871 18.5334 53.2209 19.1914 53.2209H29.1992V61.6897H22.1157C21.4578 61.6897 20.9243 62.2233 20.9243 62.8816V69.1985C20.9243 69.8568 21.4578 70.3905 22.1157 70.3905H29.1992V79.2708C29.1992 79.929 29.7327 80.4627 30.3906 80.4627H63.6011L77.515 84.0018C77.612 84.0264 77.7105 84.0386 77.8085 84.0386C78.0707 84.0386 78.3286 83.9519 78.54 83.7876C78.8302 83.5618 79 83.2145 79 82.8466V24.2025C79 23.8347 78.8302 23.4873 78.54 23.2616ZM20.3828 34.1496H57.3164V50.8369H20.3828V34.1496ZM23.3071 64.0736H38.0885C38.7464 64.0736 39.2799 63.5398 39.2799 62.8816V62.0908L46.1172 66.0401L39.2799 69.9894V69.1985C39.2799 68.5403 38.7464 68.0066 38.0885 68.0066H23.3071V64.0736ZM76.6172 81.3138L64.9414 78.344V58.8959C64.9414 58.2377 64.4079 57.7039 63.75 57.7039C63.092 57.7039 62.5586 58.2377 62.5586 58.8959V78.0788H31.582V70.3905H36.8971V72.0539C36.8971 72.4796 37.1242 72.8732 37.4928 73.0861C37.6771 73.1925 37.8828 73.2458 38.0885 73.2458C38.2943 73.2458 38.4999 73.1926 38.6842 73.0861L49.0957 67.0723C49.4643 66.8594 49.6914 66.4659 49.6914 66.0401C49.6914 65.6143 49.4643 65.2207 49.0957 65.0079L38.6842 58.9941C38.3156 58.7811 37.8615 58.7811 37.4928 58.9941C37.1242 59.207 36.8971 59.6006 36.8971 60.0263V61.6897H31.582V53.2209H58.5078C59.1657 53.2209 59.6992 52.6871 59.6992 52.0289V32.9576C59.6992 32.2994 59.1657 31.7657 58.5078 31.7657H31.582V28.9703H62.5586V48.1682C62.5586 48.8265 63.092 49.3601 63.75 49.3601C64.4079 49.3601 64.9414 48.8265 64.9414 48.1682V28.7052L76.6172 25.7355V81.3138Z" fill="#0A00C5"/>
<path d="M63.7573 52.3398C63.444 52.3398 63.1366 52.4674 62.9151 52.6892C62.6935 52.9108 62.5659 53.2183 62.5659 53.5318C62.5659 53.8466 62.6934 54.1528 62.9151 54.3745C63.1366 54.5962 63.4441 54.7237 63.7573 54.7237C64.0707 54.7237 64.378 54.5963 64.5996 54.3745C64.8224 54.1528 64.9487 53.8453 64.9487 53.5318C64.9487 53.2183 64.8224 52.912 64.5996 52.6892C64.378 52.4674 64.0719 52.3398 63.7573 52.3398Z" fill="#0A00C5"/>
</g>
<defs>
<clipPath id="clip0_1422_13958">
<rect width="61" height="61.0281" fill="white" transform="translate(18 23.0106)"/>
</clipPath>
</defs>
</svg>
