<svg width="99" height="99" viewBox="0 0 99 99" fill="none" xmlns="http://www.w3.org/2000/svg">
<rect width="99" height="99" rx="15" fill="#0A00C5" fill-opacity="0.07"/>
<path d="M91.4661 48.1354C90.7157 47.1089 72.8357 23 49.9996 23C27.1635 23 9.28264 47.1089 8.53304 48.1344C7.82232 49.1083 7.82232 50.4292 8.53304 51.403C9.28264 52.4296 27.1635 76.5385 49.9996 76.5385C72.8357 76.5385 90.7157 52.4294 91.4661 51.4039C92.1778 50.4302 92.1778 49.1083 91.4661 48.1354ZM49.9996 71C33.1784 71 18.6095 54.9985 14.2967 49.7673C18.6039 44.5316 33.1423 28.5384 49.9996 28.5384C66.82 28.5384 81.3879 44.5372 85.7024 49.7711C81.3953 55.0067 66.8569 71 49.9996 71Z" fill="#0A00C5"/>
<path d="M50.0002 33.1539C40.8386 33.1539 33.3848 40.6077 33.3848 49.7693C33.3848 58.9309 40.8386 66.3848 50.0002 66.3848C59.1618 66.3848 66.6157 58.9309 66.6157 49.7693C66.6157 40.6077 59.1618 33.1539 50.0002 33.1539ZM50.0002 60.8462C43.8922 60.8462 38.9234 55.8772 38.9234 49.7693C38.9234 43.6614 43.8923 38.6925 50.0002 38.6925C56.1081 38.6925 61.0771 43.6614 61.0771 49.7693C61.0771 55.8772 56.1083 60.8462 50.0002 60.8462Z" fill="#0A00C5"/>
</svg>
